<?xml version="1.0" encoding="utf-8"?>
<!-- Generator: Adobe Illustrator 21.0.2, SVG Export Plug-In . SVG Version: 6.00 Build 0)  -->
<svg version="1.1" id="Layer_1" xmlns="http://www.w3.org/2000/svg" xmlns:xlink="http://www.w3.org/1999/xlink" x="0px" y="0px"
	 viewBox="0 0 318.4 321.4" style="enable-background:new 0 0 318.4 321.4;" xml:space="preserve">
<style type="text/css">
	.st0{fill:none;stroke:#000000;stroke-width:1.000000e-03;stroke-miterlimit:10;}
</style>
<title>bopper</title>
<path class="st0" d="M58.8,44.4c11.4,3.2,32.6,19,35.2,33.3c10.9,61.2-25.7,112.7-50.1,148.4c-22.4,32.8-10.1,59.6-10.1,59.6h47.4
	c0,0-3-14.6,0-48c3-32.9,47.4-107.7,30.6-164c-6.8-22.9-36.2-41.9-53.3-46.4H39.5v17.1L58.8,44.4z"/>
<circle class="st0" cx="59.3" cy="264.4" r="9.9"/>
<path class="st0" d="M215,44.4c11.4,3.2,32.6,19,35.2,33.3c10.9,61.2-25.7,112.7-50.1,148.4c-22.4,32.8-10.1,59.6-10.1,59.6h47.4
	c0,0-3-14.6,0-48c3-32.9,47.4-107.7,30.6-164c-6.9-22.9-36.3-41.9-53.3-46.4h-18.8v17.1H215z"/>
<circle class="st0" cx="215.5" cy="264.4" r="9.9"/>
<path class="st0" d="M159.9,27.3L159.9,27.3c12.4,0,22.5,10.1,22.5,22.5l0,0c0,12.4-10.1,22.5-22.5,22.5l0,0
	c-12.4,0-22.5-10.1-22.5-22.5l0,0C137.4,37.3,147.5,27.3,159.9,27.3z"/>
<rect x="137.4" y="94.9" class="st0" width="45" height="45"/>
</svg>
